<?xml version="1.0" encoding="UTF-8"?>
<svg version="1.1" xmlns="http://www.w3.org/2000/svg" width="512" height="512">
<path d="M0 0 C0.93200478 -0.00445784 1.86400955 -0.00891569 2.8242569 -0.01350862 C3.83970833 -0.01332426 4.85515976 -0.01313989 5.90138245 -0.01294994 C7.52949482 -0.01846498 7.52949482 -0.01846498 9.19049835 -0.02409142 C12.83444692 -0.03512107 16.47836696 -0.03897092 20.12232971 -0.04278088 C22.73248383 -0.04904612 25.34263706 -0.05569297 27.95278931 -0.0626936 C35.79065423 -0.08243173 43.6285204 -0.09252133 51.46640396 -0.10142139 C55.16160923 -0.10580906 58.85681307 -0.11117466 62.55201721 -0.11641026 C74.84326378 -0.13342068 87.13450947 -0.14791314 99.42576599 -0.155159 C102.61352032 -0.15706875 105.80127463 -0.1589891 108.98902893 -0.16094494 C110.17741383 -0.16167055 110.17741383 -0.16167055 111.38980651 -0.16241082 C124.21357279 -0.17070478 137.0372456 -0.19603179 149.86097109 -0.22852562 C163.04052865 -0.26164751 176.22003879 -0.27961243 189.39963818 -0.28280324 C196.79390448 -0.28496371 204.18803452 -0.29364409 211.58226013 -0.31926441 C218.54261771 -0.34332633 225.50272697 -0.34676497 232.4631176 -0.33650303 C235.01196037 -0.33600834 237.56081532 -0.34230878 240.10962105 -0.35605907 C260.29490604 -0.45882483 277.58677968 1.21847039 293.05201721 15.73968983 C306.12046424 29.96874494 310.56233465 45.13397885 310.52589417 64.18768787 C310.53024896 65.58813211 310.53543466 66.98857396 310.54138184 68.38901234 C310.55469463 72.16771454 310.55535961 75.94631627 310.55281854 79.72503734 C310.55174443 82.88626902 310.55664294 86.04748073 310.56142396 89.20870811 C310.57249053 96.6657467 310.57297141 104.1227349 310.56690979 111.57977772 C310.5608598 119.26375702 310.57321345 126.94755369 310.59447986 134.63150185 C310.61210109 141.24234992 310.61809675 147.85313985 310.61484212 154.46401054 C310.61303133 158.40669471 310.61564573 162.34924831 310.62955666 166.29191113 C310.64214042 169.99630697 310.64018595 173.70041748 310.62714577 177.404809 C310.62365752 179.40744999 310.63495139 181.41009974 310.64671326 183.41270924 C310.63969894 184.61117481 310.63268463 185.80964039 310.62545776 187.0444231 C310.62570938 188.60038968 310.62570938 188.60038968 310.62596607 190.18778992 C310.01887665 194.96121788 308.07463332 198.96964865 304.25123596 201.94672108 C299.41589011 205.47249409 295.06296435 205.82079797 289.25123596 205.13422108 C283.92866016 203.31852758 280.94069217 199.99593037 278.25123596 195.13422108 C277.20906276 192.00770148 277.12652821 189.84364621 277.12666321 186.56377125 C277.12410019 185.40453144 277.12153717 184.24529163 277.11889648 183.05092335 C277.12099625 181.77766697 277.12309601 180.50441059 277.1252594 179.19257069 C277.12386447 177.83891205 277.12196505 176.48525385 277.11959839 175.13159657 C277.11510072 172.21454423 277.11324529 169.29750596 277.11313629 166.38045025 C277.1119951 161.76094856 277.09914899 157.14152666 277.08357239 152.52205372 C277.08099953 151.74191329 277.07842668 150.96177287 277.07577586 150.15799183 C277.07050908 148.56249136 277.0652236 146.96699095 277.05991983 145.3714906 C277.0248446 134.61799083 276.99825298 123.86458945 277.00074768 113.11102772 C277.00234011 105.85679083 276.98620888 98.60282566 276.95004106 91.34867579 C276.93163764 87.51299728 276.9221882 83.67777205 276.93451691 79.84205914 C276.94602047 76.22780702 276.93409624 72.61436352 276.90488243 69.00021839 C276.89516026 67.05556378 276.90994128 65.1108339 276.9256897 63.16621876 C276.81740623 53.94349221 274.73378279 47.46387389 268.93873596 40.25922108 C260.30509188 33.43261878 251.7696478 32.98280533 241.13090515 33.00050831 C240.12672039 32.99824275 239.12253563 32.9959772 238.08792102 32.99364299 C234.73105199 32.98732487 231.37422356 32.98813094 228.01734924 32.98895741 C225.60730436 32.98596458 223.19725996 32.98256176 220.78721619 32.97877979 C214.92503092 32.97086567 209.06285513 32.96772572 203.20066561 32.96716741 C198.43403171 32.96669152 193.66740113 32.9646331 188.90076828 32.96146679 C175.37468262 32.95266525 161.84860488 32.9480467 148.32251634 32.94879726 C147.22979847 32.9488572 147.22979847 32.9488572 146.11500549 32.94891834 C145.38563356 32.94895922 144.65626163 32.9490001 143.90478753 32.94904222 C132.08402206 32.94944869 120.26328845 32.93987776 108.4425322 32.92577998 C96.29350154 32.91140544 84.14448641 32.90451037 71.99544704 32.90537375 C65.17929989 32.90570532 58.36318614 32.9029758 51.54704666 32.8921957 C45.13665059 32.88212191 38.72630682 32.88243705 32.31590652 32.88971233 C29.96534624 32.89075786 27.61478156 32.88839718 25.26422882 32.88235188 C22.05124779 32.8746247 18.83850992 32.87928171 15.62553406 32.88698292 C14.69935119 32.88183935 13.77316832 32.87669579 12.8189193 32.87139636 C2.94619251 32.92355228 -5.15706898 34.50070112 -12.74876404 41.13422108 C-20.52543698 49.95156801 -20.04243916 61.68950936 -20.00273132 72.79755116 C-20.00503962 74.16024059 -20.00821861 75.52292878 -20.01218581 76.8856144 C-20.0204918 80.60626844 -20.01642775 84.32681914 -20.01021338 88.04747343 C-20.00567262 92.06934667 -20.01268068 96.09120263 -20.01817322 100.1130724 C-20.02705157 107.98248681 -20.02515216 115.85186301 -20.01934794 123.72127891 C-20.01482532 130.11874597 -20.01422114 136.51620234 -20.01639557 142.91367054 C-20.01670203 143.82529762 -20.0170085 144.7369247 -20.01732425 145.67617685 C-20.01796373 147.5283142 -20.01861215 149.38045154 -20.01926944 151.23258889 C-20.02496817 168.5870807 -20.01842201 185.94155136 -20.0076687 203.2960397 C-19.99873361 218.17668106 -20.00028578 233.05729122 -20.00950623 247.93793201 C-20.02021693 265.23168133 -20.02441889 282.52541211 -20.0182817 299.81916428 C-20.01764462 301.66436672 -20.01701588 303.50956917 -20.01639557 305.35477161 C-20.01608702 306.262571 -20.01577847 307.17037039 -20.01546057 308.10567886 C-20.01373603 314.49309664 -20.01664353 320.88050263 -20.02135468 327.26791859 C-20.02697239 335.05541748 -20.02542832 342.84287608 -20.01479319 350.63037038 C-20.00954848 354.60122377 -20.00745922 358.57201004 -20.01409149 362.54286289 C-20.02007798 366.18219908 -20.0167316 369.82140632 -20.00613639 373.46073091 C-20.00286588 375.39145447 -20.00934914 377.32218708 -20.01625085 379.25290108 C-19.96719383 390.19457879 -19.27324434 399.69212122 -11.74876404 408.13422108 C-2.86361186 415.80351032 8.2650981 415.42477652 19.39649963 415.38959217 C20.80679526 415.39234693 22.21708934 415.39602976 23.62738037 415.40056324 C26.64748422 415.4086317 29.66751424 415.41085483 32.68762779 415.40861607 C37.46615962 415.40576827 42.2445454 415.42018748 47.02304077 415.43759632 C60.60518743 415.48448986 74.1873224 415.50857351 87.76954651 415.51508045 C95.28377472 415.51883214 102.79783587 415.5368633 110.31199247 415.57017481 C115.05974956 415.59036443 119.80707516 415.59277222 124.55485761 415.58189464 C127.50848452 415.57928504 130.46186062 415.59330219 133.41542244 415.61197567 C135.43236164 415.61982057 137.44934756 415.60787083 139.46626282 415.59529591 C150.52122631 415.69626143 150.52122631 415.69626143 155.25123596 420.13422108 C158.72032664 424.35338541 160.15838499 427.65601355 160.25123596 433.13422108 C159.37595212 438.02402795 158.04012093 441.86809559 154.18873596 445.13422108 C150.07339013 447.93615867 148.20642418 448.26243496 143.25177002 448.2813921 C141.97202805 448.2885474 140.69228607 448.29570271 139.37376404 448.30307484 C137.94709802 448.30591536 136.52043174 448.30862706 135.09376526 448.31122303 C133.59733929 448.31748702 132.10091488 448.32413376 130.60449219 448.33113575 C125.67815743 448.35220351 120.75182229 448.36254736 115.82545471 448.37250233 C114.12752071 448.37655024 112.42958688 448.38066718 110.73165321 448.38485241 C102.74662376 448.40391775 94.76160357 448.41814043 86.77655572 448.42646438 C77.57762424 448.43621274 68.37893494 448.46246346 59.1800887 448.50296527 C52.06143076 448.53322443 44.94284178 448.5479429 37.82412082 448.55124539 C33.57756076 448.55358667 29.33125898 448.56242454 25.0847683 448.58770657 C21.08001135 448.61116134 17.07567944 448.61515151 13.07087135 448.60494518 C11.61050113 448.60445374 10.15010876 448.61065687 8.68980408 448.62450123 C-8.74655451 448.78038724 -23.65395814 443.72307224 -36.39720154 431.60687733 C-46.31462888 421.1787519 -52.85837354 408.64885643 -52.88298512 394.05798054 C-52.88744296 392.82988714 -52.8919008 391.60179374 -52.89649373 390.33648539 C-52.89640444 388.97670554 -52.89621461 387.6169257 -52.89593506 386.25714588 C-52.89923569 384.81016488 -52.90296168 383.3631848 -52.90707654 381.91620588 C-52.9170821 377.93924522 -52.92081101 373.96229966 -52.92346585 369.9853282 C-52.92737322 365.69609564 -52.93695129 361.40687498 -52.94567871 357.11765003 C-52.96543141 346.75844147 -52.97550804 336.39923195 -52.9844065 326.04000926 C-52.98879156 321.15932861 -52.99415782 316.27864904 -52.99939537 311.39796925 C-53.01640683 295.16925501 -53.03090028 278.94054144 -53.03814411 262.71181965 C-53.04005395 258.50138314 -53.04197429 254.29094663 -53.04393005 250.08051014 C-53.04441379 249.03405128 -53.04489753 247.98759243 -53.04539593 246.9094227 C-53.05369353 229.96325672 -53.07902627 213.0171614 -53.11151073 196.07102627 C-53.14460377 178.66522278 -53.16259492 161.25945516 -53.16578835 143.85362005 C-53.16795142 134.08398558 -53.17667028 124.31445412 -53.20224953 114.54485035 C-53.22398723 106.22333477 -53.23199187 97.90194724 -53.22228274 89.58040649 C-53.21774687 85.33775284 -53.21958254 81.09536321 -53.23904419 76.85274601 C-53.2567401 72.96129262 -53.25562663 69.07029459 -53.2401469 65.17883593 C-53.23778051 63.77835401 -53.2420436 62.37784001 -53.25397555 60.97740692 C-53.39415842 43.42322432 -48.03142485 28.45440938 -35.70579529 15.89984608 C-26.48185644 6.98730209 -13.00170756 0.02899064 0 0 Z " fill="#000000" transform="translate(52.74876403808594,-0.13422107696533203)"/>
<path d="M0 0 C0.87269531 0.65097656 1.74539063 1.30195313 2.64453125 1.97265625 C15.64949617 12.15956142 27.19995722 23.99563085 36 38 C36.38881348 38.61423828 36.77762695 39.22847656 37.17822266 39.86132812 C55.75598885 69.71435167 62.780267 108.86347874 54.82958984 143.29980469 C54.25826086 145.54591645 53.63884232 147.77224217 53 150 C52.80164551 150.73605469 52.60329102 151.47210938 52.39892578 152.23046875 C47.38159735 170.52755192 38.3909841 187.64091794 26 202 C25.21496094 202.91136719 24.42992187 203.82273437 23.62109375 204.76171875 C4.12012229 226.83642248 -19.54911067 241.21681614 -48 249 C-49.00933594 249.28593018 -49.00933594 249.28593018 -50.0390625 249.57763672 C-69.37199056 254.79374823 -95.79079523 254.50654768 -115 249 C-115.81291504 248.76893555 -116.62583008 248.53787109 -117.46337891 248.29980469 C-141.12188282 241.36834693 -161.35692644 230.24436003 -179 213 C-180.27617187 211.81664062 -180.27617187 211.81664062 -181.578125 210.609375 C-203.0404378 190.22692699 -215.56417347 161.99256219 -220 133 C-220.13019531 132.18402344 -220.26039063 131.36804688 -220.39453125 130.52734375 C-223.02483075 110.08114901 -220.63114929 88.46254287 -214 69 C-213.65324219 67.96230469 -213.30648437 66.92460937 -212.94921875 65.85546875 C-200.26933039 30.51736063 -174.34703058 3.02048998 -140.6875 -13.1875 C-95.81865172 -34.09304849 -39.95682234 -29.92386841 0 0 Z M-150 32 C-150.86238281 32.69738281 -151.72476563 33.39476562 -152.61328125 34.11328125 C-172.50663455 51.03655381 -185.59599849 77.54059733 -187.875 103.51171875 C-189.42418295 134.3501419 -180.58113644 162.62134569 -159.77734375 185.6328125 C-140.29157717 206.36934523 -113.44550462 219.03557196 -84.86328125 220.06640625 C-64.02585095 219.70823 -46.17673978 215.15477224 -28 205 C-27.01386719 204.45601562 -26.02773438 203.91203125 -25.01171875 203.3515625 C-0.76729715 188.96630511 13.94266667 164.96306566 22.03125 138.64453125 C28.9420217 110.84147288 23.24748177 83.12049248 9.5625 58.625 C-5.62512691 33.69309919 -29.71092001 16.34757366 -57.99658203 9.45654297 C-91.03815778 1.92696136 -124.00311338 10.69648642 -150 32 Z " fill="#000000" transform="translate(455,260)"/>
<path d="M0 0 C3.68807589 2.6217409 5.39998447 6.08667215 6.796875 10.27734375 C6.88357029 11.79641999 6.914569 13.31903376 6.91040039 14.84057617 C6.91028709 16.22166817 6.91028709 16.22166817 6.91017151 17.63066101 C6.90501022 18.621371 6.89984894 19.61208099 6.89453125 20.6328125 C6.8931163 21.64958572 6.89170135 22.66635895 6.89024353 23.71394348 C6.88464207 26.96427339 6.87208932 30.21453463 6.859375 33.46484375 C6.85436019 35.66731671 6.84979725 37.86979076 6.84570312 40.07226562 C6.83467217 45.47398179 6.81793262 50.87565787 6.796875 56.27734375 C7.36792969 56.26624069 7.93898438 56.25513763 8.52734375 56.24369812 C14.49739869 56.13265682 20.46715797 56.05749196 26.43798828 56.00268555 C28.66304449 55.97761768 30.88801898 55.94355431 33.11279297 55.90014648 C36.32019265 55.83915566 39.52649907 55.81105591 42.734375 55.7890625 C44.21454102 55.75035286 44.21454102 55.75035286 45.72460938 55.71086121 C52.32363339 55.70821102 56.71000795 56.97205328 61.796875 61.27734375 C65.4278161 65.77108273 65.29921594 69.81278183 65.1484375 75.3984375 C64.5139501 80.59418434 62.00857771 83.15651875 58.296875 86.58984375 C54.63035106 89.06474741 51.57534521 89.40312597 47.21191406 89.39086914 C46.31128235 89.39079361 45.41065063 89.39071808 44.48272705 89.39064026 C43.51905212 89.38547897 42.5553772 89.38031769 41.5625 89.375 C40.56933777 89.37358505 39.57617554 89.3721701 38.55291748 89.37071228 C35.38420588 89.36511963 32.21556521 89.35256845 29.046875 89.33984375 C26.89713644 89.3348278 24.74739677 89.33026506 22.59765625 89.32617188 C17.33070501 89.31515261 12.06379507 89.29842175 6.796875 89.27734375 C6.80686775 90.1217955 6.80686775 90.1217955 6.81706238 90.98330688 C6.88356104 96.85583776 6.9287358 102.72826122 6.96166992 108.60107422 C6.97673306 110.7912226 6.99718759 112.98134094 7.02319336 115.17138672 C7.05968489 118.32396878 7.07662639 121.47615112 7.08984375 124.62890625 C7.10532761 125.60413239 7.12081146 126.57935852 7.13676453 127.58413696 C7.13825967 133.65792599 6.59801468 138.27663177 2.26171875 142.921875 C-3.93683826 147.66194801 -8.43015835 148.15205099 -16.203125 147.27734375 C-20.2371225 145.64687786 -22.42887488 143.47413112 -24.77246094 139.8515625 C-26.73178206 134.95660326 -26.57717663 130.63157711 -26.49609375 125.41015625 C-26.49184891 124.37543182 -26.48760406 123.3407074 -26.48323059 122.27462769 C-26.46649496 118.98359694 -26.42885149 115.69318809 -26.390625 112.40234375 C-26.37557158 110.16537345 -26.36188433 107.92839352 -26.34960938 105.69140625 C-26.31660822 100.21984142 -26.26645968 94.74863703 -26.203125 89.27734375 C-26.76165161 89.2862262 -27.32017822 89.29510864 -27.89562988 89.30426025 C-33.73597933 89.39310999 -39.57613517 89.4532332 -45.41699219 89.49707031 C-47.59350388 89.51712139 -49.76996214 89.54436946 -51.94628906 89.57910156 C-55.08411893 89.62790587 -58.22123335 89.65037813 -61.359375 89.66796875 C-62.32427856 89.68861389 -63.28918213 89.70925903 -64.2833252 89.73052979 C-70.37528354 89.7325296 -75.1796295 88.90499979 -80.203125 85.27734375 C-84.37227157 80.03918524 -85.75039924 75.95408953 -85.203125 69.27734375 C-83.39319888 64.00495028 -80.96860118 60.33213618 -76.203125 57.27734375 C-73.32349666 56.31746764 -71.53685059 56.15580561 -68.5480957 56.16381836 C-67.60734695 56.16389389 -66.66659821 56.16396942 -65.69734192 56.16404724 C-64.68475815 56.16920853 -63.67217438 56.17436981 -62.62890625 56.1796875 C-61.58993698 56.18110245 -60.55096771 56.1825174 -59.48051453 56.18397522 C-56.15885552 56.18957719 -52.83726367 56.20213003 -49.515625 56.21484375 C-47.26497493 56.2198585 -45.01432381 56.22442145 -42.76367188 56.22851562 C-37.24346663 56.23954726 -31.72330061 56.25628732 -26.203125 56.27734375 C-26.20978683 55.70184784 -26.21644867 55.12635193 -26.22331238 54.53341675 C-26.28980225 48.53112385 -26.33498221 42.528936 -26.36791992 36.52636719 C-26.38298464 34.28771717 -26.40344033 32.04909656 -26.42944336 29.81054688 C-26.46592783 26.58846773 -26.48287483 23.36677964 -26.49609375 20.14453125 C-26.51157761 19.14743134 -26.52706146 18.15033142 -26.54301453 17.12301636 C-26.54431071 11.74291477 -26.26949857 7.90744384 -23.203125 3.27734375 C-16.17208437 -3.38364211 -8.55607859 -4.65941489 0 0 Z " fill="#000000" transform="translate(383.203125,300.72265625)"/>
<path d="M0 0 C1.28169712 -0.00551503 1.28169712 -0.00551503 2.5892871 -0.01114148 C5.46340548 -0.02218808 8.33748771 -0.02602382 11.21162415 -0.02983093 C13.26802689 -0.03609486 15.3244285 -0.0427416 17.38082886 -0.04974365 C22.9760473 -0.06716018 28.5712572 -0.07770728 34.16649604 -0.08594918 C37.66166632 -0.09109814 41.15683393 -0.09717393 44.65200233 -0.10346031 C55.58594726 -0.12251453 66.51988543 -0.13674498 77.45384377 -0.14507228 C90.07813602 -0.15484544 102.70225296 -0.1811662 115.32648343 -0.22157317 C125.08200374 -0.25172729 134.83747379 -0.26654051 144.59303981 -0.26985329 C150.4205619 -0.27220463 156.24789676 -0.2811761 162.07536888 -0.30631447 C167.55912823 -0.32958762 173.04257698 -0.33383132 178.52637291 -0.32355309 C180.53710971 -0.32305743 182.54786176 -0.32938659 184.55855179 -0.34310913 C187.30820474 -0.36082219 190.05674231 -0.35372475 192.80639648 -0.34057617 C193.59814654 -0.35154542 194.38989659 -0.36251466 195.20563906 -0.37381631 C200.78980834 -0.30954899 205.04415389 1.05277309 209.72065735 4.14717102 C214.36371689 9.02833617 215.07793748 13.11417708 215.00190735 19.64326477 C214.44541005 24.59763657 211.69772144 27.28642408 208.09565735 30.45967102 C203.86343042 33.46677963 200.49852939 33.29799578 195.44767761 33.30107117 C194.58181664 33.30545342 193.71595566 33.30983567 192.82385647 33.31435072 C189.90517728 33.32776875 186.98652831 33.33392436 184.06782532 33.34004211 C181.98201357 33.34794081 179.8962032 33.35620962 177.81039429 33.36482239 C170.94455781 33.39107279 164.07871514 33.4063546 157.21284485 33.42060852 C154.85111105 33.42596726 152.4893773 33.43134476 150.12764359 33.43674088 C140.30364702 33.45837542 130.47965211 33.47711215 120.65563774 33.48836327 C106.56885099 33.50460124 92.48234015 33.53776906 78.39565742 33.59476411 C68.49578625 33.63345518 58.59598889 33.65299508 48.69604409 33.65828383 C42.7812704 33.66193885 36.86679078 33.67397625 30.95209885 33.70638657 C25.3854096 33.7364516 19.8191926 33.74278435 14.2524395 33.73100281 C12.21105757 33.73078193 10.16965383 33.73909834 8.1283474 33.75665665 C5.3368441 33.77935736 2.54705179 33.77104905 -0.24446106 33.75517273 C-1.04856608 33.76905482 -1.85267109 33.7829369 -2.68114293 33.79723966 C-8.63697694 33.71402544 -12.64751614 31.88337539 -17.27934265 28.14717102 C-20.91028375 23.65343204 -20.78168359 19.61173294 -20.63090515 14.02607727 C-19.9936198 8.80741834 -17.48902898 6.23883917 -13.71684265 2.83467102 C-9.29167445 -0.22890696 -5.18000778 -0.00118943 0 0 Z " fill="#000000" transform="translate(84.27934265136719,169.8528289794922)"/>
<path d="M0 0 C1.24944901 -0.00700928 2.49889801 -0.01401855 3.78620911 -0.02124023 C7.20177958 -0.0358016 10.61637737 -0.0324279 14.03189278 -0.01972389 C17.61254268 -0.00956977 21.19315211 -0.01899625 24.77380371 -0.02526855 C30.78596424 -0.03253798 36.79792797 -0.02297593 42.81005859 -0.00390625 C49.75277589 0.01786135 56.69502326 0.01080946 63.63772917 -0.01121187 C69.60736207 -0.02938612 75.57685381 -0.03191437 81.54650545 -0.0214572 C85.10808288 -0.01523331 88.66943971 -0.01435591 92.23100281 -0.02760315 C96.20236358 -0.04134384 100.17320147 -0.02227874 104.14453125 0 C105.90740227 -0.01214539 105.90740227 -0.01214539 107.70588684 -0.02453613 C113.96805944 0.04056314 117.83876376 0.2638445 122.57226562 4.51757812 C126.6536868 9.04023403 127.89591098 12.30904165 127.78320312 18.46289062 C127.29370815 23.23093429 125.04045605 26.3087049 121.50976562 29.33007812 C117.70964256 32.15995701 116.12206276 32.64365857 111.47479248 32.66474915 C109.85553612 32.6754821 109.85553612 32.6754821 108.2035675 32.68643188 C107.01393906 32.68912079 105.82431061 32.69180969 104.59863281 32.69458008 C102.72533546 32.70443687 102.72533546 32.70443687 100.81419373 32.7144928 C96.66584029 32.73426419 92.51752557 32.74589694 88.36914062 32.75585938 C86.94098135 32.75990683 85.51282227 32.76402375 84.08466339 32.76820946 C77.37415413 32.78726414 70.66365588 32.80149374 63.95312476 32.80982143 C56.20868639 32.81959087 48.46453407 32.84590127 40.72019649 32.88632232 C34.73369758 32.91649518 28.7472806 32.93129146 22.76070714 32.93460244 C19.18560556 32.93695194 15.61080945 32.94589841 12.03578949 32.97106361 C8.04492571 32.99870147 4.05443726 32.99450955 0.06347656 32.98754883 C-1.70882072 33.00676392 -1.70882072 33.00676392 -3.516922 33.02636719 C-9.80392035 32.98634479 -13.67450473 32.78728156 -18.42773438 28.51757812 C-22.05607101 24.6982764 -22.73773896 21.63478806 -22.92773438 16.51757812 C-22.73773896 11.40036819 -22.05607101 8.33687985 -18.42773438 4.51757812 C-12.80737069 -0.51555316 -7.29415434 -0.05025343 0 0 Z " fill="#000000" transform="translate(86.427734375,255.482421875)"/>
<path d="M0 0 C1.53285645 -0.01270432 1.53285645 -0.01270432 3.09667969 -0.02566528 C6.46708705 -0.04902019 9.83703745 -0.05005773 13.20751953 -0.04882812 C15.55632713 -0.05593081 17.90513299 -0.06362996 20.25393677 -0.07189941 C25.1748741 -0.08534096 30.09565101 -0.08691448 35.01660156 -0.08105469 C41.31374211 -0.07516039 47.61011121 -0.10574157 53.90710258 -0.14617157 C58.7576612 -0.17205774 63.60803433 -0.17492507 68.4586525 -0.17127991 C70.77982649 -0.17297041 73.10100911 -0.18260616 75.42211533 -0.20042419 C78.67255596 -0.22262996 81.92143839 -0.21290227 85.171875 -0.1953125 C86.60135971 -0.21520737 86.60135971 -0.21520737 88.0597229 -0.23550415 C94.46859078 -0.15517136 98.75718316 1.28636145 103.71533203 5.41992188 C107.34627313 9.91366086 107.21767297 13.95535996 107.06689453 19.54101562 C106.43240713 24.73676246 103.92703474 27.29909687 100.21533203 30.73242188 C96.63417616 33.14970209 93.62655609 33.54341573 89.3644104 33.56036377 C88.50092484 33.56607391 87.63743927 33.57178406 86.74778748 33.57766724 C85.33880943 33.57934402 85.33880943 33.57934402 83.90136719 33.58105469 C82.90580307 33.58601959 81.91023895 33.5909845 80.88450623 33.59609985 C77.59112863 33.61070477 74.29779919 33.61752026 71.00439453 33.62304688 C68.71519977 33.62879913 66.42600503 33.63455685 64.1368103 33.64031982 C59.33681005 33.65082466 54.53682653 33.65667091 49.73681641 33.66015625 C43.5876037 33.66564381 37.43861209 33.68967979 31.28946877 33.7181282 C26.5608353 33.73675394 21.83225515 33.74196013 17.1035881 33.74349213 C14.83659021 33.74651866 12.56959326 33.75454718 10.30263138 33.76767731 C7.130945 33.78473818 3.95979962 33.7828574 0.78808594 33.77636719 C-0.1471843 33.78558197 -1.08245453 33.79479675 -2.04606628 33.80429077 C-7.93106186 33.76658108 -12.43814248 33.07712975 -16.92919922 28.88476562 C-21.66927223 22.68620861 -22.15937521 18.19288853 -21.28466797 10.41992188 C-19.64862851 6.37213459 -17.48065293 4.17835787 -13.82247925 1.85852051 C-9.11383405 -0.05618042 -5.03552564 -0.01541958 0 0 Z " fill="#000000" transform="translate(85.28466796875,84.580078125)"/>
</svg>
