<svg width="125" height="113" viewBox="0 0 125 113" fill="none" xmlns="http://www.w3.org/2000/svg">
<path d="M62.4998 103.583L57.2915 89.4583H20.8332C17.9686 89.4583 15.5163 88.5363 13.4764 86.6922C11.4365 84.8481 10.4165 82.6312 10.4165 80.0417V18.8333C10.4165 16.2437 11.4365 14.0269 13.4764 12.1828C15.5163 10.3387 17.9686 9.41666 20.8332 9.41666H52.0832L56.6405 23.5417H104.167C107.205 23.5417 109.7 24.4245 111.653 26.1901C113.607 27.9557 114.583 30.2118 114.583 32.9583V94.1667C114.583 96.7562 113.607 98.9731 111.653 100.817C109.7 102.661 107.205 103.583 104.167 103.583H62.4998ZM37.2394 68.7417C43.229 68.7417 48.1552 66.9957 52.0181 63.5036C55.8809 60.0116 57.8123 55.4799 57.8123 49.9083C57.8123 49.2805 57.7906 48.7116 57.7472 48.2016C57.7038 47.6915 57.5953 47.1618 57.4217 46.6125H36.8488V53.9104H48.4373C47.7429 56.1076 46.4191 57.8144 44.466 59.0307C42.5129 60.247 40.1474 60.8552 37.3696 60.8552C33.9842 60.8552 31.0762 59.7566 28.6457 57.5594C26.2151 55.3621 24.9998 52.6549 24.9998 49.4375C24.9998 46.2201 26.2151 43.5128 28.6457 41.3156C31.0762 39.1184 33.9842 38.0198 37.3696 38.0198C38.9321 38.0198 40.4078 38.2748 41.7967 38.7849C43.1856 39.295 44.4443 40.0601 45.5728 41.0802L51.953 35.5479C50.13 33.8215 47.9382 32.4875 45.3774 31.5458C42.8167 30.6042 40.104 30.1333 37.2394 30.1333C31.4234 30.1333 26.4538 31.997 22.3306 35.7245C18.2073 39.4519 16.1457 44.0229 16.1457 49.4375C16.1457 54.8521 18.2073 59.4231 22.3306 63.1505C26.4538 66.8779 31.4234 68.7417 37.2394 68.7417ZM72.1353 71.0958L74.9998 68.624C73.7846 67.2899 72.6778 65.9951 71.6795 64.7396C70.6813 63.484 69.7047 62.15 68.7498 60.7375L72.1353 71.0958ZM78.6457 65.0927C81.0762 62.5031 82.9208 60.0312 84.1795 57.6771C85.4382 55.3229 86.2846 53.4788 86.7186 52.1448H66.0155L67.578 57.0885H72.7863C73.4807 58.2656 74.3054 59.5408 75.2603 60.9141C76.2151 62.2873 77.3436 63.6802 78.6457 65.0927ZM67.7082 98.875H104.167C105.729 98.875 106.988 98.4238 107.943 97.5213C108.897 96.6189 109.375 95.5007 109.375 94.1667V32.9583C109.375 31.5458 108.897 30.408 107.943 29.5448C106.988 28.6816 105.729 28.25 104.167 28.25H58.203L64.3228 47.3187H74.6092V42.375H79.9478V47.3187H98.9582V52.1448H92.3176C91.4495 55.1267 90.1474 58.0302 88.4113 60.8552C86.6752 63.6802 84.6353 66.309 82.2915 68.7417L96.4842 81.3365L92.7082 84.75L78.6457 72.0375L73.9582 76.3927L78.1248 89.4583L67.7082 98.875Z" fill="#F5EFF7"/>
</svg>
